<svg width="15" height="14" viewBox="0 0 15 14" fill="none" xmlns="http://www.w3.org/2000/svg">
<path d="M5.92513 10.7273H0.67453" stroke="#A1A1A1" stroke-width="1.3" stroke-linecap="round" stroke-linejoin="round"/>
<path d="M8.26706 2.65013H13.5177" stroke="#A1A1A1" stroke-width="1.3" stroke-linecap="round" stroke-linejoin="round"/>
<path fill-rule="evenodd" clip-rule="evenodd" d="M4.58857 2.60511C4.58857 1.5254 3.70677 0.649902 2.61928 0.649902C1.53179 0.649902 0.649994 1.5254 0.649994 2.60511C0.649994 3.68483 1.53179 4.56032 2.61928 4.56032C3.70677 4.56032 4.58857 3.68483 4.58857 2.60511Z" stroke="#A1A1A1" stroke-width="1.3" stroke-linecap="round" stroke-linejoin="round"/>
<path fill-rule="evenodd" clip-rule="evenodd" d="M13.9833 10.6947C13.9833 9.615 13.1022 8.7395 12.0147 8.7395C10.9265 8.7395 10.0447 9.615 10.0447 10.6947C10.0447 11.7744 10.9265 12.6499 12.0147 12.6499C13.1022 12.6499 13.9833 11.7744 13.9833 10.6947Z" stroke="#A1A1A1" stroke-width="1.3" stroke-linecap="round" stroke-linejoin="round"/>
</svg>
