<svg width="30" height="28" viewBox="0 0 30 28" fill="none" xmlns="http://www.w3.org/2000/svg">
<g filter="url(#filter0_d_1_323)">
<path fill-rule="evenodd" clip-rule="evenodd" d="M19.1583 8.23285C19.1583 10.5825 17.2851 12.4666 14.949 12.4666C12.6129 12.4666 10.7397 10.5825 10.7397 8.23285C10.7397 5.88227 12.6129 4 14.949 4C17.2851 4 19.1583 5.88227 19.1583 8.23285ZM14.949 20C11.5178 20 8.58809 19.456 8.58809 17.2802C8.58809 15.1034 11.499 14.5396 14.949 14.5396C18.3802 14.5396 21.31 15.0836 21.31 17.2604C21.31 19.4362 18.399 20 14.949 20ZM20.9571 8.30922C20.9571 9.50703 20.5998 10.6229 19.973 11.5505C19.9086 11.646 19.9659 11.7748 20.0796 11.7946C20.2363 11.8216 20.3984 11.8369 20.5631 11.8414C22.2062 11.8846 23.6809 10.821 24.0883 9.21974C24.6918 6.84123 22.9198 4.7059 20.6634 4.7059C20.4181 4.7059 20.1835 4.73201 19.9551 4.77884C19.9238 4.78605 19.8907 4.80046 19.8728 4.82838C19.8513 4.8626 19.8674 4.90853 19.8889 4.93825C20.5667 5.8938 20.9571 7.05918 20.9571 8.30922ZM23.6782 13.5126C24.7823 13.7296 25.5084 14.1727 25.8093 14.8166C26.0636 15.3453 26.0636 15.9586 25.8093 16.4864C25.349 17.4851 23.8654 17.8058 23.2887 17.8886C23.1696 17.9066 23.0738 17.8031 23.0864 17.6833C23.3809 14.9157 21.0377 13.6035 20.4315 13.3018C20.4055 13.2883 20.4002 13.2676 20.4028 13.255C20.4046 13.246 20.4154 13.2316 20.4351 13.2289C21.7468 13.2046 23.1571 13.3847 23.6782 13.5126ZM9.43711 11.8413C9.60186 11.8368 9.76304 11.8224 9.92063 11.7945C10.0343 11.7747 10.0916 11.6459 10.0272 11.5504C9.4004 10.6228 9.04313 9.50694 9.04313 8.30913C9.04313 7.05909 9.43353 5.89371 10.1113 4.93816C10.1328 4.90844 10.1481 4.86251 10.1275 4.82829C10.1096 4.80127 10.0755 4.78596 10.0451 4.77875C9.81586 4.73192 9.58127 4.70581 9.33593 4.70581C7.07951 4.70581 5.30751 6.84114 5.91191 9.21965C6.31932 10.8209 7.79405 11.8845 9.43711 11.8413ZM9.59694 13.2545C9.59962 13.268 9.59425 13.2878 9.56918 13.3022C8.9621 13.6039 6.61883 14.9161 6.91342 17.6827C6.92595 17.8034 6.83104 17.9061 6.71195 17.889C6.13531 17.8061 4.65163 17.4855 4.19139 16.4867C3.9362 15.9581 3.9362 15.3457 4.19139 14.817C4.49225 14.1731 5.21752 13.73 6.32156 13.512C6.84358 13.385 8.25294 13.2049 9.5656 13.2292C9.5853 13.2319 9.59515 13.2464 9.59694 13.2545Z" fill="#AEAEB2"/>
</g>
<defs>
<filter id="filter0_d_1_323" x="-1" y="0" width="32" height="32" filterUnits="userSpaceOnUse" color-interpolation-filters="sRGB">
<feFlood flood-opacity="0" result="BackgroundImageFix"/>
<feColorMatrix in="SourceAlpha" type="matrix" values="0 0 0 0 0 0 0 0 0 0 0 0 0 0 0 0 0 0 127 0" result="hardAlpha"/>
<feOffset dy="4"/>
<feGaussianBlur stdDeviation="2"/>
<feComposite in2="hardAlpha" operator="out"/>
<feColorMatrix type="matrix" values="0 0 0 0 0 0 0 0 0 0 0 0 0 0 0 0 0 0 0.25 0"/>
<feBlend mode="normal" in2="BackgroundImageFix" result="effect1_dropShadow_1_323"/>
<feBlend mode="normal" in="SourceGraphic" in2="effect1_dropShadow_1_323" result="shape"/>
</filter>
</defs>
</svg>
